
<global>
ampeg_release=0.50
xfin_hicc1=24
xfout_hicc1=127
xfout_locc1=127
</global>

<group>
group_label=Group_0-45
lpc_hicc1=42
lpc_locc1=0

<region>
hikey=a3
hivel=127
lokey=g#3
lovel=1
lpc=QgzVQVW2TcJcLtNBGbfewOlI+UDG8re/7NyOQD75XsDSeB3BP7EAQeMzZUCRl6O/cB+yvzjgfMBzIMw/80BiQLJU2r+4CyG/BiIRPzgDGMCQNcA/235gQNCrgsDWSaI/
lpc_rms=-38.53
pitch_keycenter=a3
sample=Alto_tremolo_PP_A3.opus
</region>

<region>
hikey=a4
hivel=127
lokey=g#4
lovel=1
lpc=wK6VQUHX9MEdK3ZB79MmwQExHUGB4s7AilYWQRXT3MB58BdALqs/PxD2QT+lg5zADJyZQNWBJ8DtthrAZVuuQGJ6YcCa2SBAKXysviy1HT5Lp+O/lQ7uPicfeL+4huU/
lpc_rms=-34.29
pitch_keycenter=a4
sample=Alto_tremolo_PP_A4.opus
</region>

<region>
hikey=a5
hivel=127
lokey=g#5
lovel=1
lpc=Y0YNQuPxFcKAfp1ASzXXwH1hikFkNhPBbao1QCvwiECwptvACOCTQB4fHUDWE8nAIr8SQbfntMC12BnA3pjFQKXb+T6Ylx3AoiASv9IxDkCr3aK/yHNWQJtD/T+LEuPA
lpc_rms=-24.95
pitch_keycenter=a5
sample=Alto_tremolo_PP_A5.opus
</region>

<region>
hikey=b3
hivel=127
lokey=a#3
lovel=1
lpc=0U4VQpyPlMI7MiVC0g42wUJJU0GfQ67AVnnNP7hlnsASvbQ/4RwZQJO6kT6+vZO+QUeNPjJ5sMCPAixAPmnAQCqey8BQtOo/uc0SQN5zk8AkZ39ATzHfvEjvTMDkG+Q/
lpc_rms=-34.76
pitch_keycenter=b3
sample=Alto_tremolo_PP_B3.opus
</region>

<region>
hikey=b4
hivel=127
lokey=a#4
lovel=1
lpc=s0jrQfkxOsLBIpxBa1KTwSOku0F6hyLB008mQc0ucsBtSzI/srxAwCxoX0Cn8z7BMjsvQeN07cALX25A47kwQLiBwL9/TSpA0HQEv8YDCL8SukLAyODxP4aKOMCpel9A
lpc_rms=-28.11
pitch_keycenter=b4
sample=Alto_tremolo_PP_B4.opus
</region>

<region>
hikey=b5
hivel=127
lokey=a#5
lovel=1
lpc=glW2QaXZt8GG+u2+kYfBvw3rHEGN4QfAdN68Pv0Kgj0JlWA+/Pk7P3xqEUAsRtbAJaOUQP5DDb+GtFo+CpAwQF910z3h7we/qyzevqk79j9pZN6/Vc+Rv80XE8AQpv0/
lpc_rms=-24.07
pitch_keycenter=b5
sample=Alto_tremolo_PP_B5.opus
</region>

<region>
hikey=c#4
hivel=127
lokey=c4
lovel=1
lpc=xBJEQoNdusJH5j5CeZZCwQLJjkH9UUzBJWuGQHbzmUDyVhTBAO+hQKQGWT9opFTABdy5QAuHBMHIY4k+j+IBQbFdLcC5Ow/A4Bc7P8DToz+keam/Hgk0P4rEyMAYQr9A
lpc_rms=-33.16
pitch_keycenter=c#4
sample=Alto_tremolo_PP_C#4.opus
</region>

<region>
hikey=c#5
hivel=127
lokey=c5
lovel=1
lpc=aYm0QUSVCMKeLYhBLTmBwZI7jEHEqEHBNJYzQS+1aD3G+2nA1fX3P51M87/TIYvA6eKlQBnAgMDbsMI/yEAcQAfDPj8p0PI/HR5uwPmJRkCqlozAW5s1QLrlPsDwElZA
lpc_rms=-32.13
pitch_keycenter=c#5
sample=Alto_tremolo_PP_C#5.opus
</region>

<region>
hikey=c#6
hivel=127
lokey=c6
lovel=1
lpc=vy3QQAb7PMCbX/y/gGOVv8tp6z8jQpY+s+3FPm24FD+Hqk+/kvvjPVS37j8v026/nOEwP11Zo73UvR+/bXJLP9J6Fz9b56Q+pVxcPtV8mb5Ypqe/bliwv2HnLj/o1qo/
lpc_rms=-35.93
pitch_keycenter=C#6
sample=Alto_tremolo_PP_C#6.opus
</region>

<region>
hikey=d#4
hivel=127
lokey=d4
lovel=1
lpc=bubjQUpQWcL5KfhB/OJvwd9GjkHo22HBUJ9LQQHvicA8ZPHAehYIQf4OGsDua4m/kbaFQDPKxMCbLjS/Ok7RQET/mcAnVhJAEQQQv3PsVz8mM2TAESuVQLIGZ8BHyuA/
lpc_rms=-33.87
pitch_keycenter=d#4
sample=Alto_tremolo_PP_D#4.opus
</region>

<region>
hikey=d#5
hivel=127
lokey=d5
lovel=1
lpc=66CjQSZdzMGJuOFAxsglwdw1ZUGM77/AaHikQKG9sT8imuq/Eyf7vvdOQD9rI5fAbEeRQNVCZ8AYKARA4rlHQNsJCr6nD6U/ZakawKwi+D/lC3TAjTPdPxqJ579lxIdA
lpc_rms=-31.56
pitch_keycenter=d#5
sample=Alto_tremolo_PP_D#5.opus
</region>

<region>
hikey=f4
hivel=127
lokey=e4
lovel=1
lpc=ceUOQmkRjsLhdCRC89WQwergmUEgpyjB3BYEQYFRPT9HUz3AXVQcwJHmrUB6gljB61tbQcvCQ8HJHphAjgbVQBDlucCJiCBArIXWP+Q4P8DLCxM/1DHmv1kfRz9JaX4/
lpc_rms=-30.68
pitch_keycenter=f4
sample=Alto_tremolo_PP_F4.opus
</region>

<region>
hikey=f5
hivel=127
lokey=e5
lovel=1
lpc=h51fQvuMfcJgLRdBlzj6wNUtsUF2Z03A05f7QKztLsFrLNZAhzkrv5yTbEFhXsXBRShSQQhpFMCH5rS/SJdTQdt3yz5a0C3AfJ8EQPnkpMAbuGM/PBoov3+ssUCt+61A
lpc_rms=-20.61
pitch_keycenter=f5
sample=Alto_tremolo_PP_F5.opus
</region>

<region>
hivel=127
key=g3
lovel=1
lpc=S98bQqnRj8JFoRFC1uQDwTJ6JEEKZ9LAnU+Hv1mAlj9DMoC/U2vSP9nXC0DUGJe/29LFP39ilsBfUC69HyKYQHibrL9UgwnAJOg5QKZUxL/1mhy/g5cTQCmOPcC69ro/
lpc_rms=-35.67
sample=Alto_tremolo_PP_G3.opus
</region>

<region>
hikey=g4
hivel=127
lokey=f#4
lovel=1
lpc=3KsTQgAmjMLloR9CAYOmwY7kuEE8nGXBBv6CQVNkqsBnPErBVY7gQBgdhkDcHzTBVc2JQRV7fMFRxN5ABnfLP+WHj8BDKX9AuO2hv/hdZj8Wy6HARxmSQEHWrL+Cz4M/
lpc_rms=-29.38
pitch_keycenter=g4
sample=Alto_tremolo_PP_G4.opus
</region>

<region>
hikey=g5
hivel=127
lokey=f#5
lovel=1
lpc=3pOmQaPAp8G3pYJAOgDYwG3lPkGYYBrAuMZhQBwYk79ECSbAoCYPQCzVMEDmD5y/Dp3vP/eKUz4xvCzA8ESwQDZJNMCFvx1A74b+PkZEib6lNGg/2rZQPww5EUBqVjS+
lpc_rms=-29.53
pitch_keycenter=g5
sample=Alto_tremolo_PP_G5.opus
</region>
</group>

<group>
group_label=Group_46-90
lpc_hicc1=84
lpc_locc1=43

<region>
hikey=a3
hivel=127
lokey=g#3
lovel=1
lpc=wPyRQf/3FMKwUspBSudWwWT9WEEtCB7B19kKQYnD58DiwhBAoM54P/gPLj+OO2TAsCW0QEwG08Cc8x1AZeAZQNS7KcBgWus/JYQYvwNgTb5taGG/aj4MQH71FsA9OJM/
lpc_rms=-32.79
pitch_keycenter=a3
sample=Alto_tremolo_MF_A3.opus
</region>

<region>
hikey=a4
hivel=127
lokey=g#4
lovel=1
lpc=XDPXQbHHXsJgXxVCAqyfwb2vyUFxy8bBAuu2Qdo1UMFjmAu/UqqMQOStPz2c+ufAdqgKQaC/ssBwljK+hgqvQP9lisAXF25AtwYHwE16QEArzerAMvq0QOYflsBrHF9A
lpc_rms=-25.27
pitch_keycenter=a4
sample=Alto_tremolo_MF_A4.opus
</region>

<region>
hikey=a5
hivel=127
lokey=g#5
lovel=1
lpc=iBCXQduFs8Fr/S5BsUyjwB3FAkFS5+7ApnsBQcS3y7+oYTHAaTmFQNgMHkD/LM2/MFL1P8x6HMDiKAnAX88OQcqZKcBgYFI/sR1Ev9SjckAikkXA/6WTQEzCUr+VG4+/
lpc_rms=-21.72
pitch_keycenter=a5
sample=Alto_tremolo_MF_A5.opus
</region>

<region>
hikey=b3
hivel=127
lokey=a#3
lovel=1
lpc=/MmkQS/nKcKhhudBlZ6FwXOrk0E+3U3BnpYrQVhrFcHOkTpA/U2UP+FRgr40ynbAVWDTQFvEpcBT+Se/U1aeQObqksAOOmRApyEqvnvs2b9qUNK+Gf/nPx0Y8b/fFHk/
lpc_rms=-28.67
pitch_keycenter=b3
sample=Alto_tremolo_MF_B3.opus
</region>

<region>
hikey=b4
hivel=127
lokey=a#4
lovel=1
lpc=byEEQotfdsLJ4AVCaW6ZwRi+CkLkP9rBySx3QeZKFMF1Wwm/SPahQEyZo79+ArjAHUIRQbMX6sBcv7Y/4FJlQEKkGMDNO3NAmc+BwN3pgUCrGO3ALgnAQCDbZ8Bc9TxA
lpc_rms=-22.25
pitch_keycenter=b4
sample=Alto_tremolo_MF_B4.opus
</region>

<region>
hikey=b5
hivel=127
lokey=a#5
lovel=1
lpc=N48KQp54E8LdEGhBZyfOwGGbP0Fh4P7AkTbDQCbT+b5oNOzAnOo5Qd87tL+Ta8jAiGWuQEB3vr+ZqZ4/SpTTQI9h8sDaAMw/bNZfQCvDAEDbIJrAh2WuQPC0ocDPJKfA
lpc_rms=-15.01
pitch_keycenter=b5
sample=Alto_tremolo_MF_B5.opus
</region>

<region>
hikey=c#4
hivel=127
lokey=c4
lovel=1
lpc=sbjWQZiRbMJ6oixCqZXEwWYX3EEqOpzB/hSCQVWtTsHtmlzAOy0mQak1n8BCIqS/zUOyQOBzocBhpSvAbnUBQcmozcB8BIxANTb7v2lZAUAPRKDAYH2xQNGemcA7MhtA
lpc_rms=-26.72
pitch_keycenter=c#4
sample=Alto_tremolo_MF_C#4.opus
</region>

<region>
hikey=c#5
hivel=127
lokey=c5
lovel=1
lpc=rwtQQfwYvMFu5CtBp5aEwFq/OUEcbx/BGDyoQJNZYsDw75s/hDNSP1WVsD/1MabA5ueMQFTyE8Dwiys/P0rbP2sY0L+HxkQ/HsScv4vvXUBsL2jAVnzsP0voNcAe5BZA
lpc_rms=-27.08
pitch_keycenter=c#5
sample=Alto_tremolo_MF_C#5.opus
</region>

<region>
hikey=c#6
hivel=127
lokey=c6
lovel=1
lpc=lJ38QeZKk8GCh53A3WjYwLJ6WUH51IXAV7HIQEOXhj+L7UfAJB9IQMaH7kCJt5DAbIpvQMemlUAmAZrAadLVQJ3TYz9WMA9A+5hiP1l0kkCbvhbBH20AwcXvZ0AW0C1B
lpc_rms=-17.94
pitch_keycenter=C#6
sample=Alto_tremolo_MF_C#6.opus
</region>

<region>
hikey=d#4
hivel=127
lokey=d4
lovel=1
lpc=fzfiQTrQcsKB1SRCoPG7wTZN60EeiIzBZ3EuQQ64BcGfnQTBRKRRQSQrl8AXkAe/X2yjQMH+BMHGundAczWxQH08HcEpPvJAEEW2wAletkBYjd/AshIZQStF/cCrxyNA
lpc_rms=-25.94
pitch_keycenter=d#4
sample=Alto_tremolo_MF_D#4.opus
</region>

<region>
hikey=d#5
hivel=127
lokey=d5
lovel=1
lpc=sdKuQQ1aBsIK6kFBdrL5wPXkj0Hf/zLB4vYBQdEnosB9I3XAiqGmQC6/zD9xkHfAiMo0QC3AFsCLJxDA7LKyQHYEt786QRBAOqlHv4PpC0BfDO7AS5aRQJRJLMCBFHRA
lpc_rms=-22.32
pitch_keycenter=d#5
sample=Alto_tremolo_MF_D#5.opus
</region>

<region>
hikey=f4
hivel=127
lokey=e4
lovel=1
lpc=yPT8QbADgsJerhJCDoJ+wVRH9kEfe7DBqFw4QdkHW8EfEw5B9YBnwKEb60DYTInBk72PQej9I8FobzdAGssGQHenxb3CwRXAc+shQDK/QsDWjjJAsoGXv60plL9mwXY/
lpc_rms=-23.22
pitch_keycenter=f4
sample=Alto_tremolo_MF_F4.opus
</region>

<region>
hikey=f5
hivel=127
lokey=e5
lovel=1
lpc=aJQ5Qmznf8JgepJB8srfvt4itkGCOnbB6fF/PxZ0ScAMUgRB9Xw8wP85PUFwb5vBrMpyQT9yKMAlYFO/qTLmQNSX7cAeYpS/aOLoQBYFQUBy81nA/ZYwwFhT2z8j2NNA
lpc_rms=-16.15
pitch_keycenter=f5
sample=Alto_tremolo_MF_F5.opus
</region>

<region>
hivel=127
key=g3
lovel=1
lpc=1C0XQt74m8KUl0pCXJOkwUzNoUH0LYvBmGpZQbTXmMA/7ivB+AE/QQcwxT/uDA3B/jZLQaS9S8GZ4gVAy2yMQLm//b9EgbI/1aS+Pub3t79sFQnA3tJ4QKYoAcDMaJY+
lpc_rms=-30.99
sample=Alto_tremolo_MF_G3.opus
</region>

<region>
hikey=g4
hivel=127
lokey=f#4
lovel=1
lpc=sCgsQo1crsKAsk1CR6HQwUP/MELamhHCulfgQWW4lMHNoZTA0tPoQF9MMEBQihvBA880QX251MAnez2/fUPeQOdiB8FYxQ1BwikDwUAOHEGjNRTBYW3XQJ4RCMEAX7NA
lpc_rms=-21.80
pitch_keycenter=g4
sample=Alto_tremolo_MF_G4.opus
</region>

<region>
hikey=g5
hivel=127
lokey=f#5
lovel=1
lpc=cEaCQSKoq8FuqKxAei7Jvyc6FkHsgL3AUr10P2yQXT/Q3Zq/r30eQPZIuj+tQ73AL+DVQNkX0L9zWQPAQACjPwN3lj8ha9W914I1P3ytOb5pOU2/mw3qP+Yr0T+X1+m/
lpc_rms=-22.52
pitch_keycenter=g5
sample=Alto_tremolo_MF_G5.opus
</region>
</group>

<group>
group_label=Group_91-127
lpc_hicc1=127
lpc_locc1=85

<region>
hikey=a3
hivel=127
lokey=g#3
lovel=1
lpc=gM+2QTfXPMKKPehBRYsowWaMVUFwQhjBcoq3QML/0sAwz7JAs7revzPI4j/EeM7A8xD6QEug1sCLfC1AXir2P+LJ/L9MjIk+A2wHQGlx77//g32/ol8mQB05QcD+udI/
lpc_rms=-30.34
pitch_keycenter=a3
sample=Alto_tremolo_FF_A3.opus
</region>

<region>
hikey=a4
hivel=127
lokey=g#4
lovel=1
lpc=OPBSQX5vzMH2hGNBslWuwLWYHkE+sPnAhU0cQEhWEL84IOq/fMCJQA4HuL/jQYLAOlquQNR6c8CSMMM/oEWrPzRfwL9BaqI9bAxhvoAT0z9cEiLAEK0EQGTb0L+8TXk/
lpc_rms=-22.73
pitch_keycenter=a4
sample=Alto_tremolo_FF_A4.opus
</region>

<region>
hikey=a5
hivel=127
lokey=g#5
lovel=1
lpc=nw21QaGv4sFljytBnJSWwOTGJUHGQZ3A57b+P8Bd5r/+DAM/VOXMP9LAo0AXlNPAoczZQOqJAMFDSEBAGduvQILOrr/adqy9v8KrPbdGir7SBu29oplEQFzbF0BJcZ3A
lpc_rms=-15.76
pitch_keycenter=a5
sample=Alto_tremolo_FF_A5.opus
</region>

<region>
hikey=b3
hivel=127
lokey=a#3
lovel=1
lpc=QakRQvncnsLxwmJC2q7twQlt/EHj/6LBinRyQcCCicEoMh9B8E4nwEd9a0B65TfBc/Z5Qe+XV8HD/+FAxQRdQEbECMGAKslAQ0wmwDtl1T+rUmDA4dJ2QDuDQsCm99o/
lpc_rms=-22.94
pitch_keycenter=b3
sample=Alto_tremolo_FF_B3.opus
</region>

<region>
hikey=b4
hivel=127
lokey=a#4
lovel=1
lpc=6ZulQUMnHMJz/6FB/WoLwWKHkkFgR2jBQx3NQL5rN8Du7gDAPyKyQKfhWcBBTVbAy/q1QIeDUMAKW6o/aiamP+2G3b8Lr44/HgkRwMv7UECvbgvARDMXQAAFhsCRjjtA
lpc_rms=-19.82
pitch_keycenter=b4
sample=Alto_tremolo_FF_B4.opus
</region>

<region>
hikey=b5
hivel=127
lokey=a#5
lovel=1
lpc=wJerQTO0rsG4S8RABCoOwASrAUHrw4nAODSAQM4/x8Ad90BAow1qQM2fWEBz4A7B2UyPQNGwA78Y6zdA8staQJ2HrsCaBpa//021QO/iRj2OsI8+2s20v/8wEsAeV86/
lpc_rms=-14.31
pitch_keycenter=b5
sample=Alto_tremolo_FF_B5.opus
</region>

<region>
hikey=c#4
hivel=127
lokey=c4
lovel=1
lpc=HVS3QUZTQ8LmIwRC1XCCwUAvoEFxDlnBARDGQCZQoMDMVac+NcosQEsIhD995d3Ad5kTQdRv+MB72k5AYNtOQKDYdsCMOIs//uOIvjAcCT6Gs4K/oMWYP8Do3L8pnLY/
lpc_rms=-24.25
pitch_keycenter=c#4
sample=Alto_tremolo_FF_C#4.opus
</region>

<region>
hikey=c#5
hivel=127
lokey=c5
lovel=1
lpc=bdgXQXutdcGwj79A1JyOwKERFEEfAqvA7PiEQAi8Z8D+IAq/uOr5PyxnsT111M+/tpa+P1vWqb+vRk49Co4KQOwL47/QLks/UHWWvuDE5D/W3i/AYXfSPwaz/r+6ndY/
lpc_rms=-26.31
pitch_keycenter=c#5
sample=Alto_tremolo_FF_C#5.opus
</region>

<region>
hikey=c#6
hivel=127
lokey=c6
lovel=1
lpc=q3M3QY4G5sCRx8i+OLCkvwZ6QUAaHoI+Ej97v1jfLkDrdr6/yEgcQEWMlT+BewvAEe8cQDs/Vz9mdfi+Mb+XP+Xckz+N+a69oWFFP7Z46z/E1jfACb9qwPHxIT+y0nlA
lpc_rms=-21.13
pitch_keycenter=C#6
sample=Alto_tremolo_FF_C#6.opus
</region>

<region>
hikey=d#4
hivel=127
lokey=d4
lovel=1
lpc=x9CwQRl1P8IGsQJC+ul3welTpEFxd3fB6Kn8QLisNMBdJMrAfk8VQRZ8g8CyWGDA3BndQNzCucA3GUpAuoYOQD8ricDexiNAhosBwOIqI0AJMH3A7oZYQNCmcr9vlc89
lpc_rms=-21.10
pitch_keycenter=d#4
sample=Alto_tremolo_FF_D#4.opus
</region>

<region>
hikey=d#5
hivel=127
lokey=d5
lovel=1
lpc=pAajQbOR/8ERJ0BBVHwEwaIuqEHrZ1LBBLm5QERosMDHBWQ+qr5DQPs40z9fvl3AeAetP407B8D3301AJZoBPwjME8DifxhALMyBv27ggUDx/rXA4KVzQEZ3s8AyYq1A
lpc_rms=-18.57
pitch_keycenter=d#5
sample=Alto_tremolo_FF_D#5.opus
</region>

<region>
hikey=f4
hivel=127
lokey=e4
lovel=1
lpc=5g8bQuAfrMKmWGdC19+0wU92EkLwGQjCeg2jQcB2o8GdZz5B9xTfv7EGAUE6bq3BOwzEQfojiMHz6AhB2VuUP+V5q8B+RpJA/UPuv0ULrz8OGqzAb3IyQMGgEkAT1KS/
lpc_rms=-16.29
pitch_keycenter=f4
sample=Alto_tremolo_FF_F4.opus
</region>

<region>
hikey=f5
hivel=127
lokey=e5
lovel=1
lpc=oQPuQRrOGsJ1MCtBHm3MwIvis0EPbnHBqu7XPwhtzEALHbXAtyIRQXNDn8A0cbbAOC/bQJAAEb6zJNg/p6Bsvg7u8z8XaTu/K83Rvol3bkACYJbA9SQGQJZwar8GsqhA
lpc_rms=-14.11
pitch_keycenter=f5
sample=Alto_tremolo_FF_F5.opus
</region>

<region>
hivel=127
key=g3
lovel=1
lpc=a4TUQT2iWcKjXQtCgFtowcFTdUFJ1j/B7njuQB8fVMAdP5W/pYRsQLNhZz1TLczA/04XQVvEE8GTTV1AXL8nQAGXYMDivUNAF7d6v+0hA79nHUC+Be4XP5FRF8ATRghA
lpc_rms=-30.40
sample=Alto_tremolo_FF_G3.opus
</region>

<region>
hikey=g4
hivel=127
lokey=f#4
lovel=1
lpc=vsanQaqtKsJAXqpB+DS6v6Wrb0E8P4jBFMDCQK4tu8A3Z5dAA1RaP33oL0DOeD3BRM1EQRShxMB43rQ/voKxPzK1A8CRTD8/RoCdv2ATUkDNGwzASfoNPWsOCr9s6Is/
lpc_rms=-19.76
pitch_keycenter=g4
sample=Alto_tremolo_FF_G4.opus
</region>

<region>
hikey=g5
hivel=127
lokey=f#5
lovel=1
lpc=9SnfQQ0H+8E1cQhBUmK0wGBekEFX0AXBD7fdQIVDxMAnpVBAtYMHwBxxDUFlue7AfPIyQR0EmcB23OC/zSawP2by+j/8tY5A9/ZaQPlcpcAAwta+ZntKQPhiakBVp6Q/
lpc_rms=-14.45
pitch_keycenter=g5
sample=Alto_tremolo_FF_G5.opus
</region>
</group>